# xmcd CD database file
#
# Track frame offsets:
#	150
#	14168
#	31150
#	43405
#	52975
#	67170
#	79290
#	90543
#	99735
#	111230
#	122618
#	133050
#	148588
#	158898
#	167723
#	185155
#
# Disc length: 2604 seconds
#
# Revision: 2
# Processed by: cddbd v1.4b41PL1 Copyright (c) Steve Scherf et al.
# Submitted via: Feurio! 1.50.2ß - http://www.feurio.com
#
DISCID=eb0a2a10
DTITLE=Ronny - Golden Western Songs
DYEAR=1900
DGENRE=
TTITLE0=Tom Dooley
TTITLE1=Sag' warum willst du von mir gehen
TTITLE2=Kein Gold in Blue River
TTITLE3=Oh Susanna
TTITLE4=Lass' deinen Colt zuhaus, Bill (Dont't take your guns to town, Bill)
TTITLE5=Glory, glory, hallejujah
TTITLE6=Wie war so wunderbar (30 Meilen vor El Paso)
TTITLE7=Geisterreiter ziehen durch die Nacht
TTITLE8=Old Charly (Heut' reiten wir zum letzten Mal)
TTITLE9=Anna Maria (Down in the valley)
TTITLE10=Jesse James
TTITLE11=Ay, ay, ay (Cielito lindo)
TTITLE12=Kenn ein Land
TTITLE13=Goodnight, Irene
TTITLE14=Adios, my love
TTITLE15=Eine kleine Träne
EXTD=
EXTT0=
EXTT1=
EXTT2=
EXTT3=
EXTT4=
EXTT5=
EXTT6=
EXTT7=
EXTT8=
EXTT9=
EXTT10=
EXTT11=
EXTT12=
EXTT13=
EXTT14=
EXTT15=
PLAYORDER=
